<svg xmlns="http://www.w3.org/2000/svg" width="35" height="35">
    <defs>
        <linearGradient id="a" x1=".5" x2=".5" y2="1" gradientUnits="objectBoundingBox">
            <stop offset="0" stop-color="#14c0ff"/>
            <stop offset=".567" stop-color="#1489ff"/>
            <stop offset="1" stop-color="#007fff"/>
        </linearGradient>
    </defs>
    <g data-name="Grupo 7056">
        <g data-name="Trazado 30527" style="fill:url(#a)">
            <path d="M17.5 34.5c-4.54 0-8.81-1.768-12.02-4.98A16.889 16.889 0 0 1 .5 17.5c0-4.54 1.768-8.81 4.98-12.02C8.69 2.267 12.96.5 17.5.5c4.54 0 8.81 1.768 12.02 4.98 3.212 3.21 4.98 7.48 4.98 12.02 0 4.54-1.768 8.81-4.98 12.02A16.889 16.889 0 0 1 17.5 34.5z" style="stroke:none"/>
            <path d="M17.5 1C13.093 1 8.95 2.716 5.833 5.833A16.392 16.392 0 0 0 1 17.5c0 4.407 1.716 8.55 4.833 11.667A16.392 16.392 0 0 0 17.5 34c4.407 0 8.55-1.716 11.667-4.833A16.392 16.392 0 0 0 34 17.5c0-4.407-1.716-8.55-4.833-11.667A16.392 16.392 0 0 0 17.5 1m0-1C27.165 0 35 7.835 35 17.5S27.165 35 17.5 35 0 27.165 0 17.5 7.835 0 17.5 0z" style="fill:#1489ff;stroke:none"/>
        </g>
        <g data-name="Grupo 6840">
            <path data-name="Trazado 15108" d="M688.893 385.606v-2.521h-1.112a4.3 4.3 0 1 0-6.776-5.24 4.3 4.3 0 0 0-7.283 4.557 4.376 4.376 0 0 0 .507.684h-1.111v11.067h15.775v-2.519l4.706 2.5.16.086v-11.208zm3.451-.239v6.5l-3.452-1.838v-2.824zm-11.744-2.281a4.36 4.36 0 0 0 .4-.521 4.347 4.347 0 0 0 .4.521zm-3.181 0a2.891 2.891 0 0 1-2.88-2.882v-.076a2.882 2.882 0 1 1 2.88 2.958zm7.181 0a2.882 2.882 0 1 1 2.883-2.882 2.885 2.885 0 0 1-2.888 2.882zm2.884 1.415v8.239h-12.95v-8.24z" transform="translate(-665.438 -369.064)" style="fill:#fff"/>
        </g>
    </g>
</svg>
