<svg xmlns="http://www.w3.org/2000/svg" width="63.507" height="69.976" viewBox="0 0 63.507 69.976">
  <defs>
    <style>
      .cls-1 {
        fill: #34c6f4;
        opacity: 0.7;
      }

      .cls-2 {
        fill: #fff;
      }
    </style>
  </defs>
  <g id="Logo_venn_footer" transform="translate(-139.989 -70.058)">
    <g id="Capa_2" data-name="Capa 2" transform="translate(139.989 70.058)">
      <g id="Layer_1" data-name="Layer 1" transform="translate(0 0)">
        <circle id="Elipse_619" data-name="Elipse 619" class="cls-1" cx="24.289" cy="24.289" r="24.289"/>
        <circle id="Elipse_620" data-name="Elipse 620" class="cls-1" cx="24.289" cy="24.289" r="24.289" transform="translate(14.929)"/>
        <path id="Trazado_5816" data-name="Trazado 5816" class="cls-2" d="M95.576,84.473,89.44,75.529h-.02v8.715a.474.474,0,0,1-.474.474H86.778V71.282A1.384,1.384,0,0,1,87.535,70a1.326,1.326,0,0,1,1.653.453l9.544,13.862a.276.276,0,0,1-.228.433l-2.468-.024a.573.573,0,0,1-.46-.252Z" transform="translate(-68.052 -53.677)"/>
        <path id="Trazado_5817" data-name="Trazado 5817" class="cls-2" d="M117.98,87.4l-9.087-12.9a.314.314,0,0,1,.242-.491l2.41-.112a.31.31,0,0,1,.269.13l9.063,12.881a.314.314,0,0,1-.256.491Z" transform="translate(-82.593 -56.328)"/>
        <path id="Trazado_5818" data-name="Trazado 5818" class="cls-2" d="M141.4,88.621a1.329,1.329,0,0,1-1.108-.593l-9.036-13.576a.416.416,0,0,1,.341-.648l2.386-.031a.031.031,0,0,1,.027,0l6.019,9.029a.031.031,0,0,0,.055,0V74.425a.648.648,0,0,1,.651-.651h1.578a.426.426,0,0,1,.416.416V87.21a1.394,1.394,0,0,1-.706,1.241A1.343,1.343,0,0,1,141.4,88.621Z" transform="translate(-97.322 -56.244)"/>
        <path id="Trazado_5819" data-name="Trazado 5819" class="cls-2" d="M60.339,206.168,56.3,195.22h3.306l1.428,4.663c.215.723.4,1.4.559,2.045s.259,1.1.3,1.394l.085.409a24.9,24.9,0,0,1,.971-3.845l1.469-4.663H67.66l-4.09,10.948Z" transform="translate(-47.963 -136.297)"/>
        <path id="Trazado_5820" data-name="Trazado 5820" class="cls-2" d="M101.333,202.694v2.635a6.323,6.323,0,0,1-3.432.733,5.824,5.824,0,0,1-4.244-9.68,4.854,4.854,0,0,1,3.586-1.483,4.67,4.67,0,0,1,3.477,1.285,5.25,5.25,0,0,1,1.275,3.835,13.914,13.914,0,0,1-.174,1.7H95.378a2.631,2.631,0,0,0,1.125,1.4,3.565,3.565,0,0,0,1.919.5A4.666,4.666,0,0,0,101.333,202.694Zm-2.267-3.218v-.259c-.1-1.278-.661-1.919-1.684-1.919a1.888,1.888,0,0,0-1.34.549,2.873,2.873,0,0,0-.777,1.629Z" transform="translate(-71.625 -136.085)"/>
        <path id="Trazado_5821" data-name="Trazado 5821" class="cls-2" d="M130.653,195v1.858a3.207,3.207,0,0,1,1.265-1.435,3.767,3.767,0,0,1,2.045-.532A3.456,3.456,0,0,1,136.6,195.9a4.156,4.156,0,0,1,.951,2.948v7.1H134.4v-6.52a2.147,2.147,0,0,0-.453-1.479,1.622,1.622,0,0,0-1.275-.508,1.8,1.8,0,0,0-1.435.682,3.119,3.119,0,0,0-.573,2.045v5.794H127.5V195Z" transform="translate(-94.894 -136.076)"/>
        <path id="Trazado_5822" data-name="Trazado 5822" class="cls-2" d="M167.406,195v1.858a3.207,3.207,0,0,1,1.265-1.435,3.767,3.767,0,0,1,2.045-.532,3.456,3.456,0,0,1,2.635,1.006,4.156,4.156,0,0,1,.951,2.948v7.1h-3.153v-6.52a2.164,2.164,0,0,0-.453-1.479,1.622,1.622,0,0,0-1.275-.508,1.8,1.8,0,0,0-1.435.682,3.119,3.119,0,0,0-.573,2.045v5.794H164.26V195Z" transform="translate(-119.125 -136.076)"/>
      </g>
    </g>
  </g>
</svg>
